<?xml version="1.0" standalone="no"?>
<!DOCTYPE svg PUBLIC "-//W3C//DTD SVG 20010904//EN"
 "http://www.w3.org/TR/2001/REC-SVG-20010904/DTD/svg10.dtd">
<svg version="1.0" xmlns="http://www.w3.org/2000/svg"
 width="338.000000pt" height="338.000000pt" viewBox="0 0 338.000000 338.000000"
 preserveAspectRatio="xMidYMid meet">
<metadata>
Created by potrace 1.14, written by Peter Selinger 2001-2017
</metadata>
<g transform="translate(0.000000,338.000000) scale(0.100000,-0.100000)"
fill="#000000" stroke="none">
<path d="M1590 3345 c-19 -7 -39 -13 -45 -14 -28 -5 -114 -63 -145 -97 -33
-37 -70 -88 -71 -99 0 -2 -7 -21 -16 -42 -23 -57 -25 -76 -27 -247 -1 -153 -4
-169 -31 -167 -16 1 -185 -93 -185 -103 0 -7 9 -21 20 -31 11 -10 20 -23 20
-28 0 -6 7 -17 15 -26 9 -9 81 -106 160 -215 l145 -200 260 0 c143 0 261 2
263 5 2 2 43 58 91 124 48 66 94 128 101 138 8 9 15 22 15 27 0 6 3 10 8 10 4
1 27 30 52 67 25 36 58 80 73 98 l28 34 -43 25 c-49 29 -158 79 -173 80 -6 1
-10 62 -11 161 -2 192 -4 205 -47 293 -44 91 -125 161 -227 197 -58 21 -184
26 -230 10z"/>
<path d="M825 2387 c-80 -83 -94 -100 -132 -159 -42 -65 -44 -66 -132 -72 -45
-3 -86 -8 -91 -11 -6 -4 -23 -9 -38 -11 -44 -8 -164 -70 -212 -110 -38 -32
-62 -58 -125 -137 -9 -10 -56 -102 -60 -117 -1 -3 -5 -12 -8 -20 -13 -31 -27
-107 -27 -152 l0 -48 244 0 245 0 -1 -37 c-1 -43 9 -130 21 -185 5 -20 6 -40
2 -44 -8 -9 68 6 101 20 9 4 22 8 30 10 7 1 18 4 23 7 6 4 24 10 40 14 35 10
35 10 55 18 8 3 85 28 171 56 199 65 189 60 189 80 0 10 3 21 8 25 4 4 8 12 8
17 1 5 3 11 4 14 1 3 4 10 5 15 1 6 3 11 5 13 1 1 3 10 5 20 2 10 7 26 11 35
4 9 8 24 10 32 2 8 26 81 52 162 40 119 47 149 36 160 -7 7 -87 117 -179 243
-91 127 -172 231 -179 233 -6 1 -43 -30 -81 -71z"/>
<path d="M2295 2224 c-93 -129 -175 -241 -181 -248 -9 -9 -8 -21 3 -47 8 -19
14 -36 14 -39 0 -3 16 -54 35 -115 20 -60 37 -114 38 -120 1 -5 5 -15 8 -21 4
-6 9 -21 12 -35 19 -85 41 -129 70 -141 16 -6 37 -13 45 -14 9 -1 50 -14 91
-29 41 -14 82 -28 90 -30 8 -2 38 -11 65 -20 62 -20 67 -22 80 -25 6 -1 21 -7
35 -12 14 -5 32 -11 40 -13 8 -2 35 -11 59 -19 53 -19 67 -20 68 -3 1 17 11
82 13 82 2 0 9 76 12 128 l2 47 244 0 244 0 -5 68 c-8 96 -12 107 -61 207 -42
83 -96 151 -167 210 -34 28 -167 95 -188 95 -10 0 -21 3 -25 7 -9 10 -30 13
-120 18 -77 4 -106 15 -106 40 0 8 -3 15 -7 17 -5 2 -21 23 -38 47 -39 57
-174 201 -189 201 -6 0 -87 -106 -181 -236z"/>
<path d="M1435 1837 c-52 -29 -96 -110 -89 -165 12 -101 132 -258 266 -347 66
-43 97 -43 154 0 18 14 35 25 38 25 3 0 35 30 72 68 109 111 154 189 154 269
0 27 -3 53 -7 57 -5 4 -8 11 -8 15 0 17 -57 73 -87 85 -31 13 -99 15 -141 4
-9 -2 -35 -21 -57 -42 l-40 -37 -23 23 c-67 68 -159 85 -232 45z"/>
<path d="M1150 1278 c-14 -5 -32 -11 -40 -13 -8 -2 -34 -10 -57 -19 -24 -8
-43 -13 -43 -9 0 3 -6 1 -12 -5 -10 -7 -95 -36 -138 -47 -18 -4 -58 -18 -75
-25 -24 -10 -155 -51 -173 -54 -30 -5 -29 -23 4 -91 38 -75 91 -162 111 -183
27 -28 32 -48 19 -68 -46 -65 -75 -269 -54 -369 5 -22 10 -49 12 -60 6 -34 53
-132 87 -181 38 -56 106 -124 124 -124 6 0 23 14 36 32 13 17 70 90 127 162
56 72 117 150 135 172 23 31 35 39 45 32 6 -6 12 -7 12 -4 0 4 9 2 21 -4 11
-6 28 -13 37 -15 9 -1 37 -8 61 -15 91 -24 191 -38 198 -26 10 15 10 626 0
626 -7 0 -115 76 -127 89 -3 3 -27 22 -55 41 -27 19 -51 38 -53 42 -2 4 -8 8
-13 8 -5 0 -33 18 -62 40 -29 21 -63 48 -77 58 -19 15 -31 17 -50 10z"/>
<path d="M2190 1272 c-23 -15 -390 -280 -399 -288 -2 -2 -5 -144 -5 -314 -1
-269 1 -310 14 -311 19 -2 17 -2 65 5 57 9 74 12 125 26 25 7 50 13 55 15 6 1
21 6 35 12 14 6 32 12 40 15 10 3 43 -32 98 -101 46 -58 89 -113 95 -121 7 -8
41 -52 76 -97 35 -46 69 -83 75 -83 12 0 54 37 96 86 24 27 84 122 85 134 0 3
6 19 12 35 33 79 49 255 30 325 -17 65 -30 105 -46 141 l-19 41 39 52 c38 50
87 134 121 208 l17 38 -29 15 c-17 9 -31 15 -32 14 -2 -1 -43 11 -93 26 -49
16 -93 30 -97 31 -5 1 -10 3 -13 4 -3 1 -8 3 -12 4 -11 3 -115 36 -133 43 -8
4 -18 7 -22 8 -5 2 -9 3 -10 4 -2 2 -13 4 -26 7 -13 2 -36 11 -53 19 -16 9
-29 13 -29 10 0 -3 -8 -2 -17 4 -13 6 -26 4 -43 -7z"/>
</g>
</svg>
